<?xml version="1.0" encoding="UTF-8"?><svg id="a" xmlns="http://www.w3.org/2000/svg" viewBox="0 0 24 24"><path d="m20.25,12c0,2.199-.859,4.271-2.419,5.831-1.561,1.56-3.632,2.419-5.831,2.419s-4.271-.859-5.831-2.419c-1.56-1.561-2.419-3.632-2.419-5.831s.859-4.27,2.419-5.831c1.561-1.56,3.631-2.419,5.831-2.419,1.914,0,3.728.651,5.196,1.847l-1.428,1.428h4V3.026l-1.509,1.509c-1.754-1.476-3.944-2.284-6.259-2.284-2.601,0-5.048,1.015-6.892,2.859s-2.858,4.291-2.858,6.891,1.015,5.047,2.858,6.892c1.845,1.844,4.292,2.858,6.892,2.858s5.047-1.015,6.892-2.858c1.844-1.845,2.858-4.292,2.858-6.892h-1.5Z" style="fill:#6ec800;"/><polygon points="11.25 5.556 11.25 12.311 14.276 15.337 15.337 14.276 12.75 11.689 12.75 5.556 11.25 5.556" style="fill:#6ec800;"/></svg>