<?xml version="1.0" encoding="UTF-8"?>
<svg id="icon" xmlns="http://www.w3.org/2000/svg" viewBox="0 0 24 24">
  <defs>
    <style>
      .cls-1 {
        fill: #6ec800;
      }
    </style>
  </defs>
  <path class="cls-1" d="m12,15.54c-1.95,0-3.54-1.59-3.54-3.54s1.59-3.54,3.54-3.54,3.54,1.59,3.54,3.54-1.59,3.54-3.54,3.54Zm0-5.57c-1.12,0-2.04.91-2.04,2.04s.91,2.04,2.04,2.04,2.04-.91,2.04-2.04-.91-2.04-2.04-2.04Z"/>
  <path class="cls-1" d="m14.84,21.75h-5.67l-.41-3.1c-.16-.07-.32-.16-.47-.25-.15-.09-.29-.18-.43-.28l-2.89,1.23-2.84-4.94,2.5-1.89s0-.04,0-.06c0-.15-.01-.3-.01-.46,0-.14,0-.29.01-.45,0-.02,0-.05,0-.07l-2.5-1.89,2.84-4.91,2.89,1.2c.14-.1.29-.19.45-.28.15-.09.3-.17.46-.24l.41-3.12h5.67l.41,3.12c.16.08.32.16.46.24.14.08.28.17.43.28l2.91-1.2,2.84,4.91-2.53,1.92s0,.06,0,.09v.4c0,.14,0,.29-.01.43,0,.03,0,.06,0,.08l2.5,1.89-2.84,4.94-2.87-1.23c-.15.1-.3.2-.45.29-.14.08-.29.16-.44.23l-.41,3.12Zm-4.36-1.5h3.04l.35-2.68.42-.16c.21-.08.43-.18.63-.3.21-.12.42-.27.63-.43l.35-.28,2.45,1.05,1.52-2.64-2.16-1.63.08-.45c.03-.14.04-.26.05-.37,0-.12.01-.23.01-.35v-.4c0-.08-.01-.18-.03-.28l-.09-.46,2.19-1.66-1.52-2.62-2.5,1.03-.34-.28c-.21-.17-.41-.31-.61-.42-.19-.11-.42-.22-.66-.31l-.41-.16-.35-2.68h-3.04l-.35,2.68-.42.16c-.21.08-.43.19-.66.31-.23.13-.44.27-.63.43l-.35.27-2.48-1.03-1.52,2.62,2.17,1.64-.09.46c-.02.12-.04.23-.04.34,0,.14-.01.25-.01.37,0,.13,0,.25.01.38,0,.11.02.21.04.31l.11.47-2.18,1.65,1.52,2.64,2.47-1.05.35.28c.2.16.41.3.65.44.21.13.41.22.61.28l.46.14.36,2.71Z"/>
</svg>