<?xml version="1.0" encoding="UTF-8"?><svg id="a" xmlns="http://www.w3.org/2000/svg" viewBox="0 0 24 24"><path d="m11.958,18.612C3.872,18.612,1.279,12.545,1.173,12.287l-.117-.283.115-.284c.104-.259,2.655-6.333,10.787-6.333,7.138,0,10.633,5.981,10.778,6.236l.208.365-.202.368c-.141.255-3.522,6.255-10.784,6.255ZM2.696,12.002c.581,1.126,3.075,5.11,9.262,5.11,5.45,0,8.425-3.863,9.241-5.106-.844-1.223-3.945-5.119-9.241-5.119-6.176,0-8.686,4.006-9.262,5.114Z" style="fill:#6ec800;"/><path d="m11.958,16.12c-2.271,0-4.12-1.849-4.12-4.12s1.849-4.12,4.12-4.12,4.119,1.848,4.119,4.12-1.848,4.12-4.119,4.12Zm0-6.74c-1.444,0-2.62,1.175-2.62,2.62s1.176,2.62,2.62,2.62,2.619-1.176,2.619-2.62-1.175-2.62-2.619-2.62Z" style="fill:#6ec800;"/></svg>