<?xml version="1.0" encoding="UTF-8"?><svg id="a" xmlns="http://www.w3.org/2000/svg" viewBox="0 0 24 24"><path d="m15.729,14.387l-.034-13.18h-7.269v13.016c-.939.947-1.457,2.203-1.457,3.54,0,2.773,2.257,5.03,5.03,5.03s5.03-2.257,5.03-5.03c0-1.264-.46-2.45-1.301-3.376Zm-3.729,6.906c-1.946,0-3.53-1.584-3.53-3.53,0-.943.367-1.83,1.038-2.5.056-.056.171-.16.173-.162l.246-.224V2.707h4.272l.032,12.302.227.22c.691.671,1.072,1.57,1.072,2.534,0,1.946-1.584,3.53-3.53,3.53Z" style="fill:#6ec800;"/><path d="m12.708,16.123V4.038h-1.5v12.085c-.605.284-1.027.895-1.027,1.606,0,.98.797,1.777,1.777,1.777s1.777-.797,1.777-1.777c0-.712-.422-1.322-1.027-1.606Z" style="fill:#6ec800;"/></svg>