<?xml version="1.0" encoding="UTF-8"?><svg id="a" xmlns="http://www.w3.org/2000/svg" viewBox="0 0 24 24"><path d="m17.226,12.473c1.132-.035,2.719-.358,3.757-1.396,1.603-1.603,1.103-4.201.812-5.243l-.344-1.239-2.544,2.544-1.253-1.253,2.572-2.571-1.278-.325c-2.514-.64-4.329-.419-5.4.652-1.078,1.078-1.23,2.924-1.225,3.928.004.644-.217,1.215-.488,1.692l-1.123-1.123-1.342,1.342-3.643-3.643-.86-1.904-1.919-.866-1.053,1.053.866,1.919,1.905.86,3.642,3.643-1.342,1.342,1.213,1.213-3.912,3.664c-1.038,1.038-1.038,2.729,0,3.767.52.519,1.201.778,1.884.778s1.364-.26,1.884-.778l1.704-1.917,1.938-2.016,3.997,3.997c.516.517,1.194.774,1.872.774s1.355-.258,1.872-.774c.5-.5.775-1.164.775-1.872s-.275-1.372-.775-1.872l-3.924-3.924c.538-.293,1.109-.451,1.712-.451h.018Zm-8.588,5.121l-1.662,1.873c-.453.453-1.193.453-1.646,0-.22-.22-.341-.512-.341-.823s.121-.603.392-.87l1.859-1.677,2.004-1.937,1.374,1.374-1.98,2.06Zm10.058,1.126c0,.307-.119.595-.336.812-.447.447-1.176.447-1.623,0l-7.647-7.647,1.623-1.623,7.647,7.647c.217.217.336.505.336.812Zm-4.288-6.885l-1.484-1.484c.585-.892.905-1.842.901-2.787-.007-1.311.279-2.353.785-2.859.496-.497,1.391-.672,2.628-.519l-1.703,1.702,3.374,3.374,1.68-1.68c.062.827-.036,1.806-.665,2.436-.707.707-1.875.956-2.67.956-.015,0-.03,0-.045,0-1.005,0-1.941.299-2.8.862Z" style="fill:#6ec800;"/></svg>